<?xml version="1.0" encoding="utf-8"?>
<!-- Generator: Adobe Illustrator 24.1.1, SVG Export Plug-In . SVG Version: 6.00 Build 0)  -->
<svg version="1.1" id="katman_1" xmlns="http://www.w3.org/2000/svg" xmlns:xlink="http://www.w3.org/1999/xlink" x="0px" y="0px"
	 viewBox="0 0 24 24" style="enable-background:new 0 0 24 24;" xml:space="preserve">
<style type="text/css">
	.st0{fill:none;stroke:#B0D6D6;stroke-width:2;stroke-linecap:round;stroke-linejoin:round;}
</style>
<path class="st0" d="M22.6,14.4L12,22.1L1.4,14.4c-0.3-0.2-0.4-0.6-0.3-0.9l1.2-3.8l2.4-7.5C4.7,2.1,4.8,2,4.8,2
	C5,1.8,5.2,1.8,5.4,2c0.1,0,0.1,0.1,0.1,0.2L8,9.7h8.1l2.4-7.5c0-0.1,0.1-0.1,0.1-0.2c0.2-0.2,0.4-0.2,0.6,0c0.1,0,0.1,0.1,0.1,0.2
	l2.4,7.5l1.3,3.8C23.1,13.8,23,14.2,22.6,14.4z"/>
</svg>
